<svg id="Layer_1" data-name="Layer 1" xmlns="http://www.w3.org/2000/svg" viewBox="0 0 2048 1536"><defs><style>.cls-1{fill:#fcc893;}.cls-2{fill:#bababa;}.cls-3{fill:#e8e8e8;}</style></defs><title>CDLOGO_transparent_light</title><path class="cls-1" d="M614.5181,928.2946c4.0929-21.4425,7.38-43.0757,12.4048-64.2976,44.5414-188.1328,207.6029-328.1895,399.7152-342.853,25.2363-1.9262,50.7464-.2644,76.9656-0.2644V706.8737c-89.7659-9.4687-167.6975,15.6281-230.2715,81.2083C822.31,841.5556,798.7785,906.42,801.2151,980.322c4.9238,149.341,139.959,273.7456,302.5543,252.3037v187.5256c-21.9616,0-43.8913,1.2414-65.6417-.2085-112.0683-7.47-209.1882-49.959-289.3041-128.6588-74.9155-73.591-118.4528-163.4-131.6415-267.7524-0.5234-4.1416-1.76-8.193-2.664-12.2864Q614.5181,969.77,614.5181,928.2946Z"/><path class="cls-2" d="M1174.435,10.6529c-0.1417,29.7726-.3953,59.5451-0.4058,89.3178q-0.0681,192.28-.0195,384.56v16.9842l-69.5643-6.8387c0-5.5494.0043-10.5723-.0006-15.5953q-0.216-220.1115-.1689-440.2226c0.0212-11.8868-3.0637-15.7084-15.0652-15.0751-18.8913.9969-37.8737,0.2649-57.175,0.2649l-2.7644-13.3954H1174.435Z"/><path class="cls-3" d="M1174.6912,1414.5636c0-27.1894.1942-51.7141-.047-76.2346-0.3351-34.0694-1.6958-102.1983-1.6958-102.1983l-0.0285-10.8941,10.9883-2.8121s72.1-20.8278,103.3606-42.552c11.2033-7.7855,21.3272-17.1241,31.2463-25.187l126.6806,126.9491C1369.78,1350.8818,1282.7567,1399.5826,1174.6912,1414.5636Z"/><path class="cls-3" d="M1172.7983,523.7909c100.2066,9.0129,169.4165,42.85,239.7794,113.2826-46.9714,43.1314-46.9681,43.15-127.5967,120.7325,0,0-25.1658-17.24-53.2654-30.1835-25.8722-11.9176-59.638-17.3931-59.6394-17.4619"/><path class="cls-2" d="M1171.217,736.9368V1202.1l-66.0943,7.81V729.2068Z"/><path class="cls-2" d="M1033.2088,1514.2086c3.5633-1.8962,7.0845-5.3335,10.697-5.4322,19.7239-.5384,39.47-0.2565,60.6324-0.2565v-69.0465h66.9392V1507.65c21.95,0,42.4944.1622,63.0337-.0818,7.958-.0945,11.3741,2.4737,8.2637,11.17h-206.74Z"/></svg>